<svg xmlns="http://www.w3.org/2000/svg" viewBox="0 0 980 650" role="img" aria-labelledby="title desc">
  <title id="title">S3 Explorer application preview</title><desc id="desc">A dark framed Windows application showing accounts, buckets, objects and transfer progress.</desc>
  <defs>
    <linearGradient id="frame" x1="50" y1="20" x2="920" y2="650" gradientUnits="userSpaceOnUse"><stop stop-color="#27364a"/><stop offset="1" stop-color="#111b2a"/></linearGradient>
    <linearGradient id="sel" x1="0" y1="0" x2="1" y2="1"><stop stop-color="#dff2ff"/><stop offset="1" stop-color="#e6faf4"/></linearGradient>
    <filter id="shadow" x="-20%" y="-20%" width="140%" height="150%"><feDropShadow dx="0" dy="22" stdDeviation="26" flood-color="#020711" flood-opacity=".6"/></filter>
  </defs>
  <g filter="url(#shadow)">
    <rect x="16" y="16" width="948" height="610" rx="15" fill="url(#frame)"/>
    <rect x="27" y="27" width="926" height="588" rx="9" fill="#f6f8fb"/>
  </g>
  <path d="M27 36a9 9 0 0 1 9-9h908a9 9 0 0 1 9 9v35H27Z" fill="#e9eef5"/>
  <rect x="45" y="41" width="20" height="20" rx="6" fill="#0b1b31"/><path d="M50 47c0-2 2.2-3 5-3s5 1 5 3-2.2 3-5 3-5-1-5-3Zm0 0v7c0 2 2.2 3 5 3s5-1 5-3v-7" fill="none" stroke="#5cbcff" stroke-width="1.8"/>
  <text x="76" y="56" font-family="Segoe UI,Arial" font-size="15" font-weight="600" fill="#28364a">S3 Explorer v0.5</text>
  <g fill="#7b8798"><rect x="874" y="48" width="12" height="1.5"/><rect x="904" y="42" width="11" height="10" fill="none" stroke="#7b8798"/><path d="m934 43 10 10m0-10-10 10" stroke="#7b8798"/></g>
  <rect x="27" y="71" width="926" height="31" fill="#fff"/><g font-family="Segoe UI,Arial" font-size="12" fill="#37455a"><text x="45" y="91">文件</text><text x="88" y="91">编辑</text><text x="132" y="91">查看</text><text x="177" y="91">Bucket</text><text x="235" y="91">对象</text><text x="280" y="91">工具</text><text x="325" y="91">帮助</text></g>
  <rect x="27" y="102" width="926" height="44" fill="#f8fafc"/><g stroke="#45617d" stroke-width="2" fill="none" stroke-linecap="round"><path d="M51 124h18m-9-9-9 9 9 9"/><path d="M85 124h18m-9-9 9 9-9 9"/><path d="m121 131 8-14 8 14m-14-4h12"/><path d="M158 117a10 10 0 1 1-3 15m3 0v-7h-7"/><path d="M201 115v18m-9-9h18" stroke="#16a67f"/><path d="M235 117h18v15h-18z"/><path d="m281 116 7 7 7-7m-7 7v11"/></g>
  <rect x="27" y="146" width="926" height="39" fill="#fff"/><rect x="43" y="154" width="648" height="24" rx="4" fill="#f4f7fb" stroke="#d8e0ea"/><text x="56" y="171" font-family="Consolas,monospace" font-size="12" fill="#526277">s3://minio-local/backups/2026/</text><rect x="780" y="154" width="157" height="24" rx="4" fill="#f4f7fb" stroke="#d8e0ea"/><text x="793" y="171" font-family="Segoe UI,Arial" font-size="11" fill="#9ba5b3">搜索当前列表</text>
  <rect x="27" y="185" width="230" height="300" fill="#f7f9fc"/><line x1="257" y1="185" x2="257" y2="485" stroke="#dbe2eb"/>
  <g font-family="Segoe UI,Arial" font-size="12"><text x="48" y="211" fill="#6a7585" font-weight="600">ACCOUNTS</text><path d="m49 232 5 5 5-5" fill="none" stroke="#8090a2"/><circle cx="73" cy="234" r="7" fill="#4f81bd"/><text x="87" y="238" fill="#33445a">minio-local</text><rect x="66" y="248" width="169" height="29" rx="5" fill="url(#sel)"/><path d="M81 258c0-3 4-5 9-5s9 2 9 5v9c0 3-4 5-9 5s-9-2-9-5Z" fill="#45b69c"/><path d="M81 258c0 3 4 5 9 5s9-2 9-5" fill="none" stroke="#fff"/><text x="108" y="267" fill="#1d3d43" font-weight="600">backups</text><path d="m49 294 5 5 5-5" fill="none" stroke="#8090a2"/><circle cx="73" cy="296" r="7" fill="#7b63c8"/><text x="87" y="300" fill="#33445a">aws-production</text><circle cx="73" cy="329" r="7" fill="#e2944c"/><text x="87" y="333" fill="#33445a">oss-archive</text><circle cx="73" cy="362" r="7" fill="#8090a2"/><text x="87" y="366" fill="#33445a">external-bucket</text></g>
  <rect x="257" y="185" width="696" height="300" fill="#fff"/><rect x="257" y="185" width="696" height="32" fill="#f5f7fa"/><g font-family="Segoe UI,Arial" font-size="11" fill="#788496"><text x="278" y="205">名称</text><text x="570" y="205">大小</text><text x="655" y="205">类型</text><text x="760" y="205">修改时间</text><text x="890" y="205">存储类型</text></g><line x1="257" y1="217" x2="953" y2="217" stroke="#e0e5ec"/>
  <g font-family="Segoe UI,Arial" font-size="12" fill="#36465b"><rect x="257" y="218" width="696" height="40" fill="#f7fbff"/><path d="M279 231h17l4 5v13h-21z" fill="#63a6d8"/><text x="310" y="243">daily/</text><text x="655" y="243" fill="#7c8998">文件夹</text><text x="760" y="243" fill="#7c8998">2026-07-27 01:42</text><path d="M279 272h17l4 5v13h-21z" fill="#6dc1a6"/><text x="310" y="284">release/</text><text x="655" y="284" fill="#7c8998">文件夹</text><text x="760" y="284" fill="#7c8998">2026-07-27 00:18</text><path d="M281 311h15v19h-15z" fill="#7e8fa8"/><text x="310" y="325">manifest.json</text><text x="570" y="325" fill="#7c8998">2.8 KB</text><text x="655" y="325" fill="#7c8998">JSON</text><text x="760" y="325" fill="#7c8998">2026-07-26 23:56</text><text x="890" y="325" fill="#7c8998">STANDARD</text><path d="M281 352h15v19h-15z" fill="#7e8fa8"/><text x="310" y="366">database.zip</text><text x="570" y="366" fill="#7c8998">1.4 GB</text><text x="655" y="366" fill="#7c8998">ZIP</text><text x="760" y="366" fill="#7c8998">2026-07-26 23:55</text><text x="890" y="366" fill="#7c8998">STANDARD</text></g>
  <g stroke="#edf0f4"><line x1="257" y1="258" x2="953" y2="258"/><line x1="257" y1="299" x2="953" y2="299"/><line x1="257" y1="340" x2="953" y2="340"/><line x1="257" y1="381" x2="953" y2="381"/></g>
  <rect x="27" y="485" width="926" height="102" fill="#f8fafc"/><line x1="27" y1="485" x2="953" y2="485" stroke="#d9e0e8"/><g font-family="Segoe UI,Arial" font-size="11"><text x="47" y="507" fill="#526277" font-weight="600">传输队列</text><text x="157" y="507" fill="#8490a0">进行中 1</text><text x="235" y="507" fill="#8490a0">已完成 12</text><rect x="47" y="520" width="886" height="50" rx="6" fill="#fff" stroke="#e0e5ec"/><path d="M63 535h12v18H63z" fill="#63a6d8"/><text x="87" y="544" fill="#34455a">database.zip</text><text x="285" y="544" fill="#788496">上传</text><rect x="365" y="536" width="298" height="8" rx="4" fill="#e9eef4"/><rect x="365" y="536" width="221" height="8" rx="4" fill="#45b69c"/><text x="680" y="544" fill="#466273">74%</text><text x="760" y="544" fill="#788496">28.4 MB/s</text><text x="876" y="544" fill="#2a967a">运行中</text></g>
  <rect x="27" y="587" width="926" height="28" fill="#edf2f7"/><g font-family="Segoe UI,Arial" font-size="10.5" fill="#667487"><text x="44" y="605">已连接</text><text x="99" y="605">|</text><text x="115" y="605">s3://minio-local/backups/2026/</text><text x="835" y="605">↑ 28.4 MB/s</text><text x="916" y="605">↓ 0 B/s</text></g>
</svg>
